<?xml version="1.0" encoding="utf-8"?>
<svg version="1.1" id="Layer_1" xmlns="http://www.w3.org/2000/svg" xmlns:xlink="http://www.w3.org/1999/xlink" x="0px" y="0px"
	 viewBox="0 0 526.8 331.4" style="enable-background:new 0 0 526.8 331.4;" xml:space="preserve">
<style type="text/css">
	.st0{stroke:#000000;stroke-width:7;stroke-miterlimit:10;}
	.st1{stroke:#000000;stroke-width:10;stroke-miterlimit:10;}
</style>
<g>
	<g>
		<path class="st0" d="M98.1,10.3c-3.7-1.8-7.9-2.8-12.2-2.8c-15.7,0-28.6,12.8-28.6,28.6v3.3H41.2c-18.7,0-33.9,15.4-33.9,34.3
			v216.6c0,18.7,15.2,33.9,33.9,33.9h444.3c18.7,0,33.9-15.2,33.9-33.9V73.7c0-18.9-15.2-34.3-33.9-34.3h-16.1v-3.3
			c0-15.7-12.8-28.6-28.6-28.6s-28.6,12.8-28.6,28.6v3.3H114.4v-3.3c0-3.3-0.6-6.5-1.6-9.5 M432.6,36.1c0-4.5,3.7-8.2,8.2-8.2
			s8.2,3.7,8.2,8.2v3.3h-16.3L432.6,36.1L432.6,36.1z M77.7,36.1c0-4.5,3.7-8.2,8.2-8.2s8.2,3.7,8.2,8.2v3.3H77.7V36.1z
			 M498.9,290.3c0,7.4-6,13.5-13.5,13.5H41.2c-7.4,0-13.5-6-13.5-13.5V73.7c0-7.5,6.2-13.9,13.5-13.9h444.3
			c7.3,0,13.5,6.4,13.5,13.9L498.9,290.3L498.9,290.3z"/>
		<path class="st0" d="M485.4,324.6H41.2C22.3,324.6,7,309.2,7,290.4V73.7c0-9.2,3.6-17.9,10-24.5S32,39,41.2,39l0,0h15.7v-2.9
			c0-16,13-28.9,28.9-28.9c4.3,0,8.5,0.9,12.4,2.8l-0.3,0.7C94.1,8.9,90.1,8,85.8,8C70.3,8,57.7,20.6,57.7,36.1v3.6H41.2l0,0
			c-8.9,0-17.3,3.5-23.7,9.9c-6.3,6.4-9.8,14.9-9.8,24v216.6c0,18.5,15,33.5,33.5,33.5h444.3c18.5,0,33.5-15,33.5-33.5V73.7
			c0-18.7-15-33.9-33.5-33.9H469v-3.6C469,20.7,456.4,8,440.8,8s-28.2,12.6-28.2,28.2v3.6H114v-3.6c0-3.2-0.5-6.3-1.6-9.4l0.7-0.3
			c1.1,3.1,1.6,6.3,1.6,9.6V39h297.1v-2.9c0-16,13-28.9,28.9-28.9c16,0,28.9,13,28.9,28.9V39h15.7c18.9,0,34.2,15.5,34.2,34.6v216.6
			C519.7,309.2,504.3,324.6,485.4,324.6z M485.4,304.2H41.2c-7.6,0-13.8-6.2-13.8-13.8V73.7c0-7.7,6.3-14.2,13.8-14.2h444.3
			c7.5,0,13.8,6.5,13.8,14.2v216.6C499.3,297.9,493.1,304.2,485.4,304.2z M41.2,60.2c-7.1,0-13.1,6.2-13.1,13.5v216.6
			c0,7.2,5.9,13.1,13.1,13.1h444.3c7.2,0,13.1-5.9,13.1-13.1h0.4h-0.4V73.7c0-7.3-6-13.5-13.1-13.5L41.2,60.2L41.2,60.2z
			 M449.3,39.8h-17.1v-3.6c0-4.7,3.8-8.5,8.5-8.5s8.5,3.8,8.5,8.5v3.6H449.3z M433,39h15.6v-2.9c0-4.3-3.5-7.8-7.8-7.8
			s-7.8,3.5-7.8,7.8L433,39z M94.4,39.8H77.3v-3.6c0-4.7,3.8-8.5,8.5-8.5s8.5,3.8,8.5,8.5L94.4,39.8L94.4,39.8z M78,39h15.6v-2.9
			c0-4.3-3.5-7.8-7.8-7.8S78,31.8,78,36.1V39z"/>
	</g>
	<g>
		<g>
			<path class="st1" d="M100.6,88.7c-5.6,0-10.2,4.6-10.2,10.2v166.2c0,5.6,4.6,10.2,10.2,10.2s10.2-4.6,10.2-10.2V98.9
				C110.8,93.2,106.3,88.7,100.6,88.7z"/>
		</g>
	</g>
	<g>
		<g>
			<path class="st1" d="M181.2,88.7c-5.6,0-10.2,4.6-10.2,10.2v166.2c0,5.6,4.6,10.2,10.2,10.2s10.2-4.6,10.2-10.2V98.9
				C191.4,93.2,186.8,88.7,181.2,88.7z"/>
		</g>
	</g>
	<g>
		<g>
			<path class="st1" d="M262.8,88.7c-5.6,0-10.2,4.6-10.2,10.2v166.2c0,5.6,4.6,10.2,10.2,10.2s10.2-4.6,10.2-10.2V98.9
				C273,93.2,268.4,88.7,262.8,88.7z"/>
		</g>
	</g>
	<g>
		<g>
			<path class="st1" d="M344.4,88.7c-5.6,0-10.2,4.6-10.2,10.2v166.2c0,5.6,4.6,10.2,10.2,10.2s10.2-4.6,10.2-10.2V98.9
				C354.6,93.2,350,88.7,344.4,88.7z"/>
		</g>
	</g>
	<g>
		<g>
			<path class="st1" d="M426,88.7c-5.6,0-10.2,4.6-10.2,10.2v166.2c0,5.6,4.6,10.2,10.2,10.2s10.2-4.6,10.2-10.2V98.9
				C436.2,93.2,431.6,88.7,426,88.7z"/>
		</g>
	</g>
</g>
</svg>
