<?xml version="1.0" encoding="utf-8"?>
<svg version="1.1" id="Layer_1" xmlns="http://www.w3.org/2000/svg" xmlns:xlink="http://www.w3.org/1999/xlink" x="0px" y="0px"
	 viewBox="0 0 50 50" style="enable-background:new 0 0 50 50;" xml:space="preserve">
<style type="text/css">
	.st0{stroke:#000000;stroke-miterlimit:10;}
</style>
<path class="st0" d="M25,0.8c-13.2,0-24,10.8-24,24s10.8,24,24,24s24-10.8,24-24S38.2,0.8,25,0.8z M25,2.8c12.2,0,22,9.8,22,22
	s-9.8,22-22,22S3,37,3,24.8S12.8,2.8,25,2.8z"/>
<path d="M34.1,10.4l-0.9,3.9c-1.7-1.4-3.7-2.1-5.9-2.1c-3,0-5.3,0.9-7,2.6c-1.7,1.7-2.7,3.6-3.1,5.7h14.6l-0.6,2.9H17l0,0.8l0,2
	h13.7L30.1,29H17.4c0.5,2.9,1.7,5,3.5,6.4c1.8,1.4,3.8,2,6.1,2c2.7,0,4.8-0.7,6.3-2.1v4.4c-1.8,0.8-3.7,1.2-5.9,1.2
	c-7.9,0-12.6-4-14.2-12H9.9l0.6-2.9h2.2c0-0.3,0-1,0-1.9v-0.9H9.9l0.6-2.9H13c0.7-3.9,2.5-6.9,5.1-8.9c2.7-2,5.8-3,9.3-3
	C30.1,8.6,32.3,9.2,34.1,10.4z"/>
</svg>
