<?xml version="1.0" encoding="utf-8"?>
<svg version="1.1" id="Capa_1" xmlns="http://www.w3.org/2000/svg" xmlns:xlink="http://www.w3.org/1999/xlink" x="0px" y="0px"
	 viewBox="0 0 441.2 265.9" style="enable-background:new 0 0 441.2 265.9;" xml:space="preserve">
<style type="text/css">
	.st0{fill:#010002;}
</style>
<path class="st0" d="M441,264.6l-0.2-37.4c2.2-8.7-3.2-15.8-12.2-15.8h-42H51.9H14c-9,0-15.2,7.2-13.8,16.1l-0.1,38"/>
<rect x="110.2" y="162.8" class="st0" width="59.6" height="35.6"/>
<rect x="183.3" y="162.8" class="st0" width="59.6" height="35.6"/>
<rect x="37" y="162.8" class="st0" width="59.6" height="35.6"/>
<rect x="37" y="114" class="st0" width="59.6" height="35.6"/>
<rect x="183.3" y="114" class="st0" width="59.6" height="35.6"/>
<rect x="37" y="65.2" class="st0" width="59.6" height="35.6"/>
<path class="st0" d="M286.3,154.6h29.8h8.1v8.1v35.6h89.4v-85.7h18.3V92.3h-18.3V55.7h-36.6V0.2h-19v55.5h-71.8v36.6H268v20.3h18.3
	L286.3,154.6L286.3,154.6z M300.5,84.2V72c0-2.2,1.8-4.1,4.1-4.1h12.2c2.2,0,4.1,1.8,4.1,4.1v12.2c0,2.2-1.8,4.1-4.1,4.1h-12.2
	C302.3,88.3,300.5,86.4,300.5,84.2z M381.8,84.2V72c0-2.2,1.8-4.1,4.1-4.1h12.2c2.2,0,4.1,1.8,4.1,4.1v12.2c0,2.2-1.8,4.1-4.1,4.1
	h-12.2C383.6,88.3,381.8,86.4,381.8,84.2z M341.2,84.2V72c0-2.2,1.8-4.1,4.1-4.1h12.2c0.2,0,0.4,0.1,0.7,0.1
	c1.9,0.3,3.4,1.9,3.4,3.9v12.2c0,2-1.5,3.6-3.4,3.9c-0.2,0-0.4,0.1-0.7,0.1h-12.2C343,88.3,341.2,86.4,341.2,84.2z"/>
<polygon class="st0" points="316.1,198.3 316.1,162.8 286.3,162.8 256.5,162.8 256.5,198.3 286.3,198.3 "/>
<path d="M157.1,75.6h-11.4V0.2c-3.8-0.5-7.6,0-11.4,0v75.4h-11.4c-3.4,0-5.7,2.3-5.7,5.7v39.9c0,3.4,2.3,5.7,5.7,5.7h11.4v11.4
	h-11.4v11.4h34.2v-11.4h-11.4v-11.4h11.4c3.4,0,5.7-2.3,5.7-5.7V81.3C162.8,77.9,160.5,75.6,157.1,75.6z M151.4,115.5h-22.8V87h22.8
	V115.5z"/>
<rect x="134.3" y="0.2" width="242.8" height="13.8"/>
</svg>
