<?xml version="1.0" encoding="utf-8"?>
<svg version="1.1" id="Layer_1" xmlns="http://www.w3.org/2000/svg" xmlns:xlink="http://www.w3.org/1999/xlink" x="0px" y="0px"
	 viewBox="0 0 50 50" style="enable-background:new 0 0 50 50;" xml:space="preserve">
<style type="text/css">
	.st0{stroke:#000000;stroke-miterlimit:10;}
</style>
<path class="st0" d="M25,1C11.8,1,1,11.8,1,25s10.8,24,24,24s24-10.8,24-24S38.2,1,25,1z M25,3c12.2,0,22,9.8,22,22s-9.8,22-22,22
	S3,37.2,3,25S12.8,3,25,3z M21,12v4.9L18,18v2l3-1.1v3L18,23v2l3-1.1V38v1h1c6.8,0,12.7-4.9,13.9-11.7l0-0.2L34,26.8L34,27
	c-1,5.5-5.5,9.4-11,9.8V23.2l6-2.2v-2l-6,2.2v-3l6-2.2v-2l-6,2.2V12H21z"/>
</svg>
