<?xml version="1.0" encoding="utf-8"?>
<!-- Generator: Adobe Illustrator 22.0.1, SVG Export Plug-In . SVG Version: 6.00 Build 0)  -->
<svg version="1.1" id="Layer_1" xmlns="http://www.w3.org/2000/svg" xmlns:xlink="http://www.w3.org/1999/xlink" x="0px" y="0px"
	 viewBox="0 0 102.9 31" style="enable-background:new 0 0 102.9 31;" xml:space="preserve">
<style type="text/css">
	.st0{fill:#5C89C7;}
	.st1{fill:#273476;}
	.st2{fill:#273477;}
</style>
<title>Arkas Logo RGB/Primary/No Border</title>
<desc>Created with Oğuz Fırat HAMARAT.</desc>
<g>
	<path class="st0" d="M29.5,21c-0.2-0.1-0.4-0.2-0.6-0.3c-1.1-0.5-2.1-1-3.2-1.3c-0.9-0.3-1.9-0.5-2.8-0.5c-2.3-0.2-4.5,0.2-6.6,1.2
		c-0.9,0.4-1.8,0.8-2.8,1.2c-1,0.4-2,0.6-3.1,0.8c-0.5,0.1-1,0.1-1.5,0.1c-1,0-1.9-0.2-2.8-0.4c-1.6-0.4-3-1-4.4-1.9
		c-0.3-0.2-0.5-0.3-0.7-0.5c-0.1-0.1-0.1-0.1-0.2-0.2c-0.1-0.6-0.2-1.2-0.3-1.9c0-0.2,0-0.2,0.2-0.2c0.1,0,0.1,0,0.2,0
		c5.4,0,10.7,0,16.1,0c0.3,0,0.3,0,0.3-0.3c0-4,0-7.9,0-11.9c0-1.4,0-2.8,0-4.1c0-0.3,0-0.3,0.3-0.2c1.2,0.1,2.3,0.4,3.4,0.8
		C22.5,1.9,24,2.8,25.4,4c1.5,1.3,2.8,2.9,3.7,4.7c0.7,1.4,1.2,3,1.4,4.6c0.1,0.7,0.2,1.4,0.2,2.1c0,1.7-0.3,3.4-0.9,5
		C29.7,20.6,29.6,20.8,29.5,21C29.6,21,29.6,21,29.5,21z"/>
	<path class="st0" d="M1.5,21.3c0.2,0.1,0.4,0.3,0.7,0.4c1.2,0.6,2.4,1.1,3.7,1.4c1.1,0.3,2.3,0.4,3.5,0.4c1.4,0,2.7-0.3,4.1-0.7
		c1-0.4,2-0.8,3-1.2c1.1-0.5,2.2-0.9,3.4-1.1c1-0.2,1.9-0.2,2.9-0.1c1.6,0.1,3.2,0.6,4.7,1.2c0.5,0.2,1,0.4,1.5,0.7
		c0.2,0.1,0.2,0.1,0.1,0.3c-0.5,1-1.1,1.9-1.9,2.8c-1.5,1.7-3.2,3.1-5.2,4c-1.3,0.6-2.7,1-4.2,1.3c-0.7,0.1-1.4,0.2-2.2,0.2
		c-2,0-3.9-0.4-5.7-1.1c-1.7-0.7-3.2-1.7-4.5-2.9c-1.6-1.5-2.9-3.2-3.8-5.2C1.5,21.4,1.4,21.3,1.5,21.3z"/>
	<path class="st1" d="M9.1,7.9c0.9,0.8,1.8,1.6,2.8,2.4c0-1.8,0-3.5,0-5.3c-0.1,0-0.2,0-0.3,0.1c-2.5,1-4.4,2.6-5.7,5
		c-0.8,1.4-1.3,2.9-1.5,4.6c0,0.3,0,0.5,0,0.8c0,0.2,0,0.2-0.2,0.2c-1.2,0-2.5,0-3.7,0c-0.2,0-0.2,0-0.2-0.2c0-1.5,0.2-3,0.7-4.5
		c1.6-5.1,5.8-9,11.1-10.2c1.1-0.3,2.2-0.4,3.3-0.4c0,0,0.1,0,0.1,0c0.1,0,0.1,0,0.1,0.1c0,0.2,0,0.3,0,0.5c0,0.2,0,0.5,0,0.7
		c0,4.6,0,9.1,0,13.7c0,0.3,0,0.3-0.3,0.3c-1.1,0-2.2,0-3.2,0c-0.2,0-0.3,0-0.4-0.1c-1.7-1.5-3.3-2.9-5-4.4
		c-0.2-0.2-0.2-0.1-0.1-0.3c0.6-1,1.3-1.9,2.2-2.7C8.9,8,9,8,9.1,7.9C9,7.9,9.1,7.9,9.1,7.9z"/>
	<path class="st1" d="M58.1,16.7c1.1,1.4,2.1,2.8,3.2,4.2c0,0.1-0.1,0.1-0.1,0.1c-1.1,0.6-2.2,1.1-3.4,1.7c-0.2,0.1-0.2,0.1-0.3-0.1
		c-1.3-2.1-2.6-4.3-3.9-6.4c0-0.1-0.1-0.1-0.2-0.2c0,0.1,0,0.2,0,0.3c0,2,0,3.9,0,5.9c0,0.3,0,0.3-0.3,0.3c-1.2,0-2.3,0-3.5,0
		c-0.1,0-0.1,0-0.2,0c-0.1,0-0.1,0-0.1-0.1c0-0.1,0-0.1,0-0.2c0-4.4,0-8.8,0-13.3c0-0.2,0-0.2,0.2-0.3c0.9-0.2,1.7-0.4,2.6-0.4
		c0.6,0,1.3-0.1,1.9,0c1.1,0.1,2.2,0.2,3.3,0.7c0.5,0.2,1,0.5,1.4,0.8c1,0.8,1.5,1.8,1.5,3c0,0.6,0,1.1-0.1,1.6
		c-0.3,1-0.9,1.7-1.7,2.1C58.3,16.6,58.2,16.6,58.1,16.7z M53.3,13.4c0,0.5,0,1,0,1.6c0,0.2,0,0.2,0.2,0.2c0.2,0,0.4,0,0.7,0
		c0.4,0,0.7-0.1,1.1-0.2c0.4-0.2,0.7-0.5,0.9-0.9c0.2-0.7,0.1-1.6-0.8-2.1c-0.2-0.1-0.3-0.1-0.5-0.2c-0.4-0.1-0.9-0.1-1.3-0.1
		c-0.2,0-0.2,0-0.2,0.2C53.3,12.4,53.3,12.9,53.3,13.4z"/>
	<path class="st2" d="M74.9,10c-0.3,0.3-0.5,0.6-0.7,0.9c-1.1,1.4-2.2,2.8-3.3,4.2c0,0,0,0.1-0.1,0.1c-0.1,0.1-0.1,0.1,0,0.2
		c0,0,0.1,0.1,0.1,0.1c1.4,1.8,2.8,3.5,4.2,5.3c0.1,0.1,0.1,0.1,0.2,0.2c-0.1,0.1-0.1,0.1-0.2,0.1c-1.1,0.5-2.2,1.1-3.3,1.6
		c-0.2,0.1-0.2,0.1-0.3-0.1c-1.4-2-2.9-4.1-4.3-6.1c0-0.1-0.1-0.1-0.2-0.2c-0.1,0.1,0,0.1,0,0.2c0,1.9,0,3.7,0,5.6c0,0,0,0.1,0,0.1
		c0,0.2,0,0.2-0.2,0.2c-1.2,0-2.5,0-3.7,0c-0.2,0-0.2,0-0.2-0.2c0,0,0-0.1,0-0.1c0-4.5,0-8.9,0-13.4c0-0.3,0-0.3,0.3-0.3
		c1.2,0,2.3,0,3.5,0c0,0,0,0,0.1,0c0.2,0,0.2,0,0.2,0.2c0,1.8,0,3.6,0,5.3c0,0.1,0,0.2,0,0.2c0,0,0,0,0,0c0-0.1,0.1-0.1,0.1-0.2
		c1.4-1.9,2.8-3.8,4.2-5.7c0.2-0.2,0.1-0.2,0.4-0.1c1,0.5,2,1.1,3.1,1.6C74.7,9.9,74.8,10,74.9,10z"/>
	<path class="st2" d="M47.3,22.4c-0.1,0-0.1,0-0.2,0c-1.2,0-2.5,0-3.7,0c-0.3,0-0.2,0-0.3-0.2c-0.2-0.7-0.4-1.5-0.6-2.2
		c0-0.1-0.1-0.2-0.2-0.2c-1.2,0-2.3,0-3.5,0c-0.1,0-0.2,0-0.2,0.2c-0.2,0.8-0.4,1.5-0.6,2.3c0,0.1-0.1,0.2-0.2,0.2
		c-1.3,0-2.6,0-3.9,0c0,0-0.1,0-0.1,0c0-0.1,0-0.2,0-0.2c1.4-4.5,2.8-9,4.3-13.5c0.1-0.2,0.1-0.2,0.3-0.2c1.4,0,2.9,0,4.3,0
		c0.2,0,0.2,0,0.3,0.2c1.4,4.5,2.9,9,4.3,13.5C47.3,22.3,47.3,22.4,47.3,22.4z M40.5,12.2C40.5,12.2,40.5,12.3,40.5,12.2
		c-0.4,1.5-0.8,3.1-1.2,4.6c0.4,0,2.2,0,2.3,0C41.3,15.3,40.9,13.8,40.5,12.2z"/>
	<path class="st2" d="M89.8,22.4c-0.1,0-0.1,0-0.2,0c-1.2,0-2.5,0-3.7,0c-0.2,0-0.2,0-0.3-0.2c-0.2-0.7-0.4-1.5-0.6-2.2
		c-0.1-0.2,0-0.2-0.3-0.2c-1.1,0-2.3,0-3.4,0c-0.2,0-0.2,0-0.3,0.2c-0.2,0.7-0.4,1.4-0.6,2.2c-0.1,0.3,0,0.3-0.3,0.3
		c-1.2,0-2.4,0-3.6,0c-0.1,0-0.2,0-0.3,0c0-0.1,0-0.2,0-0.3c0.7-2.2,1.4-4.3,2.1-6.5c0.7-2.3,1.5-4.7,2.2-7c0.1-0.2,0.1-0.2,0.3-0.2
		c1.4,0,2.8,0,4.3,0c0.3,0,0.2,0,0.3,0.2c1.4,4.5,2.9,9,4.3,13.4C89.7,22.2,89.8,22.3,89.8,22.4z M84.1,16.8c-0.4-1.5-0.8-3-1.2-4.6
		c0,0,0,0.1-0.1,0.1c-0.4,1.5-0.7,2.9-1.1,4.4c0,0.2,0,0.2,0.1,0.2c0.7,0,1.4,0,2,0C84.1,16.9,84.1,16.9,84.1,16.8z"/>
	<path class="st2" d="M93.1,18c0.3,0.2,0.5,0.3,0.7,0.5c0.7,0.5,1.5,0.7,2.3,0.8c0.3,0,0.6,0.1,1,0c0.2-0.1,0.5-0.2,0.7-0.3
		c0.4-0.3,0.3-0.8-0.1-1.1c-0.2-0.1-0.3-0.2-0.5-0.2c-0.5-0.1-1.1-0.3-1.6-0.4c-0.7-0.2-1.4-0.5-2.1-0.8c-1-0.6-1.6-1.3-1.9-2.4
		c-0.3-1.4-0.1-2.7,0.8-3.8c0.8-0.9,1.7-1.5,2.9-1.7c0.8-0.2,1.7-0.2,2.5-0.2c0.8,0.1,1.7,0.3,2.4,0.6c0.5,0.2,1,0.5,1.4,0.8
		c0.1,0.1,0.1,0.1,0,0.2c-0.5,1-1.1,2-1.6,3c0,0,0,0,0,0c-0.1,0-0.1-0.1-0.2-0.1c-0.6-0.5-1.3-0.8-2.1-1c-0.6-0.1-1.1-0.2-1.7,0
		c-0.2,0-0.3,0.1-0.4,0.2c-0.3,0.2-0.4,0.7,0,1c0.3,0.2,0.7,0.3,1,0.4c0.9,0.2,1.7,0.4,2.5,0.7c0.6,0.2,1.2,0.5,1.6,1
		c0.7,0.7,1.1,1.5,1.2,2.5c0.1,0.7,0,1.4-0.2,2.1c-0.3,1-1,1.7-1.9,2.3c-0.7,0.4-1.4,0.6-2.2,0.7c-1.8,0.2-3.6,0-5.3-0.8
		c-0.4-0.2-0.8-0.4-1.2-0.7c-0.1-0.1-0.1-0.1,0-0.2C91.9,20,92.5,19,93.1,18C93.1,18,93.1,18,93.1,18z"/>
</g>
</svg>
