<?xml version="1.0" encoding="utf-8"?>
<!-- Generator: Adobe Illustrator 22.0.1, SVG Export Plug-In . SVG Version: 6.00 Build 0)  -->
<svg version="1.1" id="Layer_1" xmlns="http://www.w3.org/2000/svg" xmlns:xlink="http://www.w3.org/1999/xlink" x="0px" y="0px"
	 viewBox="0 0 135 31" style="enable-background:new 0 0 135 31;" xml:space="preserve">
<style type="text/css">
	.st0{fill:#ADADAD;}
</style>
<desc>Created with Sketch.</desc>
<g>
	<path class="st0" d="M34.3,5.5c3.9,0,7.9,0,11.8,0c0,6.6,0,13.2,0,19.8c-0.1,0.2-0.3,0.3-0.5,0.3c-6.3,0-12.6,0-19,0
		c-0.4,0-0.5-0.1-0.5-0.5c0-3.1,0-6.2,0-9.3c0-0.4,0.1-0.5,0.5-0.5c2.4,0,4.8,0,7.2,0c0.1,0,0.1,0,0.3,0c0-0.1,0-0.2,0-0.3
		c0-3,0-5.9,0-8.9C33.9,5.8,34,5.6,34.3,5.5z M41.5,21.9c-1.1,0-2.1,0-3.2,0c0,0.9,0,1.9,0,2.8c1.1,0,2.1,0,3.2,0
		C41.5,23.8,41.5,22.9,41.5,21.9z M36,9.1c0.5,0,1.1,0,1.6,0c0-0.5,0-1.1,0-1.6c-0.5,0-1.1,0-1.6,0C36,8.1,36,8.6,36,9.1z M40.7,7.5
		c-0.5,0-1.1,0-1.6,0c0,0.5,0,1.1,0,1.6c0.5,0,1.1,0,1.6,0C40.7,8.6,40.7,8.1,40.7,7.5z M42.4,9.1c0.5,0,1.1,0,1.6,0
		c0-0.5,0-1.1,0-1.6c-0.5,0-1.1,0-1.6,0C42.4,8.1,42.4,8.6,42.4,9.1z M37.6,10.7c-0.5,0-1.1,0-1.6,0c0,0.5,0,1.1,0,1.6
		c0.5,0,1.1,0,1.6,0C37.6,11.8,37.6,11.2,37.6,10.7z M40.7,12.3c0-0.5,0-1.1,0-1.6c-0.5,0-1.1,0-1.6,0c0,0.5,0,1.1,0,1.6
		C39.8,12.3,40.2,12.3,40.7,12.3z M44,12.3c0-0.5,0-1.1,0-1.6c-0.5,0-1.1,0-1.6,0c0,0.5,0,1.1,0,1.6C42.9,12.3,43.5,12.3,44,12.3z
		 M37.6,13.9c-0.5,0-1.1,0-1.6,0c0,0.5,0,1.1,0,1.6c0.5,0,1.1,0,1.6,0C37.6,15,37.6,14.5,37.6,13.9z M40.7,15.5c0-0.5,0-1.1,0-1.6
		c-0.5,0-1.1,0-1.6,0c0,0.5,0,1.1,0,1.6C39.8,15.5,40.2,15.5,40.7,15.5z M42.4,13.9c0,0.5,0,1.1,0,1.6c0.5,0,1.1,0,1.6,0
		c0-0.5,0-1.1,0-1.6C43.5,13.9,42.9,13.9,42.4,13.9z M27.9,18.7c0.5,0,1.1,0,1.6,0c0-0.5,0-1.1,0-1.6c-0.5,0-1.1,0-1.6,0
		C27.9,17.7,27.9,18.2,27.9,18.7z M31.2,18.7c0.5,0,1.1,0,1.6,0c0-0.5,0-1.1,0-1.6c-0.5,0-1.1,0-1.6,0
		C31.2,17.7,31.2,18.2,31.2,18.7z M37.6,17.1c-0.5,0-1.1,0-1.6,0c0,0.5,0,1.1,0,1.6c0.5,0,1.1,0,1.6,0
		C37.6,18.2,37.6,17.6,37.6,17.1z M40.7,18.7c0-0.5,0-1.1,0-1.6c-0.5,0-1.1,0-1.6,0c0,0.5,0,1.1,0,1.6
		C39.7,18.7,40.2,18.7,40.7,18.7z M44,18.7c0-0.5,0-1.1,0-1.6c-0.5,0-1.1,0-1.6,0c0,0.5,0,1.1,0,1.6C42.9,18.7,43.5,18.7,44,18.7z
		 M27.9,20.4c0,0.5,0,1.1,0,1.6c0.5,0,1.1,0,1.6,0c0-0.5,0-1.1,0-1.6C29,20.4,28.4,20.4,27.9,20.4z M31.2,21.9c0.5,0,1.1,0,1.6,0
		c0-0.5,0-1.1,0-1.6c-0.5,0-1.1,0-1.6,0C31.2,20.9,31.2,21.4,31.2,21.9z"/>
	<g>
		<path class="st0" d="M51.1,20.3v-9h1.8l3.7,6v-6h1.7v9h-1.9l-3.6-5.9v5.9H51.1z"/>
		<path class="st0" d="M59.7,15.9c0-0.9,0.1-1.7,0.4-2.3c0.2-0.5,0.5-0.9,0.9-1.3c0.3-0.3,0.7-0.7,1.2-0.8c0.5-0.3,1.2-0.4,1.9-0.4
			c1.3,0,2.4,0.4,3.2,1.3c0.8,0.8,1.2,2,1.2,3.4s-0.4,2.6-1.2,3.4c-0.8,0.8-1.9,1.3-3.2,1.3s-2.4-0.4-3.2-1.3
			C60.1,18.4,59.7,17.3,59.7,15.9z M61.6,15.8c0,1,0.3,1.8,0.7,2.3c0.5,0.5,1.1,0.8,1.8,0.8c0.7,0,1.3-0.3,1.8-0.8
			c0.5-0.5,0.7-1.3,0.7-2.3c0-1.1-0.2-1.8-0.7-2.3c-0.5-0.5-1.1-0.8-1.8-0.8c-0.7,0-1.3,0.3-1.8,0.8C61.8,13.9,61.6,14.7,61.6,15.8z
			"/>
		<path class="st0" d="M73.4,20.3v-8.9h1.9v7.4h4.5v1.5C79.8,20.3,73.4,20.3,73.4,20.3z"/>
		<path class="st0" d="M80.7,15.9c0-0.9,0.1-1.7,0.4-2.3c0.2-0.5,0.5-0.9,0.9-1.3c0.3-0.3,0.7-0.7,1.2-0.8c0.5-0.3,1.2-0.3,1.9-0.3
			c1.3,0,2.4,0.4,3.2,1.3c0.8,0.8,1.2,2,1.2,3.4s-0.4,2.6-1.2,3.4s-1.9,1.3-3.2,1.3s-2.4-0.4-3.2-1.3C81.1,18.4,80.7,17.3,80.7,15.9
			z M82.5,15.8c0,1,0.3,1.8,0.7,2.3c0.5,0.5,1.1,0.8,1.8,0.8c0.7,0,1.3-0.3,1.8-0.8c0.5-0.5,0.7-1.3,0.7-2.3c0-1.1-0.2-1.8-0.7-2.3
			c-0.5-0.5-1.1-0.8-1.8-0.8s-1.3,0.3-1.8,0.8C82.8,13.9,82.5,14.7,82.5,15.8z"/>
		<path class="st0" d="M95,17v-1.5h3.9V19c-0.4,0.4-0.9,0.7-1.7,1c-0.7,0.3-1.5,0.4-2.2,0.4c-0.9,0-1.8-0.2-2.4-0.6
			c-0.7-0.4-1.3-1-1.6-1.7c-0.3-0.7-0.5-1.5-0.5-2.4c0-0.9,0.2-1.8,0.6-2.5c0.4-0.7,1-1.3,1.7-1.7c0.6-0.3,1.3-0.5,2.2-0.5
			c1.1,0,2,0.3,2.6,0.7c0.6,0.5,1.1,1.1,1.2,1.9l-1.8,0.3c-0.1-0.5-0.4-0.8-0.7-1.1c-0.3-0.3-0.8-0.4-1.3-0.4
			c-0.8,0-1.5,0.3-1.9,0.7c-0.5,0.5-0.7,1.3-0.7,2.2c0,1.1,0.3,1.9,0.7,2.4s1.1,0.8,1.9,0.8c0.4,0,0.8-0.1,1.1-0.2
			c0.4-0.1,0.7-0.3,1-0.5v-1.1L95,17L95,17z"/>
		<path class="st0" d="M100.3,15.9c0-0.9,0.1-1.7,0.4-2.3c0.2-0.5,0.5-0.9,0.9-1.3c0.3-0.3,0.7-0.7,1.2-0.8c0.5-0.3,1.2-0.3,1.9-0.3
			c1.3,0,2.4,0.4,3.2,1.3c0.8,0.8,1.2,2,1.2,3.4s-0.4,2.6-1.2,3.4s-1.9,1.3-3.2,1.3s-2.4-0.4-3.2-1.3
			C100.7,18.4,100.3,17.3,100.3,15.9z M102.1,15.8c0,1,0.3,1.8,0.7,2.3c0.5,0.5,1.1,0.8,1.8,0.8s1.3-0.3,1.8-0.8
			c0.5-0.5,0.7-1.3,0.7-2.3c0-1.1-0.2-1.8-0.7-2.3s-1.1-0.8-1.8-0.8s-1.3,0.3-1.8,0.8C102.3,13.9,102.1,14.7,102.1,15.8z"/>
	</g>
</g>
</svg>
