<?xml version="1.0" encoding="UTF-8"?>
<svg width="25px" height="25px" viewBox="0 0 25 25" version="1.1" xmlns="http://www.w3.org/2000/svg" xmlns:xlink="http://www.w3.org/1999/xlink">
    <!-- Generator: Sketch 52.6 (67491) - http://www.bohemiancoding.com/sketch -->
    <title>ic_list_1</title>
    <desc>Created with Sketch.</desc>
    <g id="Dashboard-UI" stroke="none" stroke-width="1" fill="none" fill-rule="evenodd">
        <g id="Home-Page" transform="translate(-579.000000, -505.000000)" fill="#FFFFFF">
            <g id="ic_list_1" transform="translate(579.000000, 505.000000)">
                <g id="list">
                    <path d="M12.4996667,0 C5.59641667,0 8.33333333e-05,5.59675 8.33333333e-05,12.49975 C8.33333333e-05,19.4030833 5.59641667,25 12.4996667,25 C19.4029167,25 24.9999167,19.4030833 24.9999167,12.49975 C24.9999167,5.59641667 19.4029167,0 12.4996667,0 Z M7.5265,17.0385833 C7.04925,17.0385833 6.66308333,16.6523333 6.66308333,16.1749167 C6.66308333,15.6979167 7.04933333,15.3116667 7.5265,15.3116667 C8.0035,15.3116667 8.38991667,15.6979167 8.38991667,16.1749167 C8.38991667,16.6523333 8.0035,17.0385833 7.5265,17.0385833 Z M7.5265,13.3634167 C7.04925,13.3634167 6.66308333,12.9771667 6.66308333,12.4995 C6.66308333,12.0225 7.04933333,11.63625 7.5265,11.63625 C8.0035,11.63625 8.38991667,12.0225 8.38991667,12.4995 C8.38991667,12.97725 8.0035,13.3634167 7.5265,13.3634167 Z M7.5265,9.68833333 C7.04925,9.68833333 6.66308333,9.30208333 6.66308333,8.82466667 C6.66308333,8.34766667 7.04933333,7.96141667 7.5265,7.96141667 C8.0035,7.96141667 8.38991667,8.34766667 8.38991667,8.82466667 C8.38991667,9.30208333 8.0035,9.68833333 7.5265,9.68833333 Z M18.337,16.9845 L10.24175,16.9845 C9.76433333,16.9845 9.37725,16.5974167 9.37725,16.12 C9.37725,15.6425833 9.76433333,15.2555 10.24175,15.2555 L18.337,15.2555 C18.8144167,15.2555 19.2015,15.6425833 19.2015,16.12 C19.2015,16.5974167 18.8144167,16.9845 18.337,16.9845 Z M18.337,13.3373333 L10.24175,13.3373333 C9.76433333,13.3373333 9.37725,12.95025 9.37725,12.4728333 C9.37725,11.9954167 9.76433333,11.6083333 10.24175,11.6083333 L18.337,11.6083333 C18.8144167,11.6083333 19.2015,11.9954167 19.2015,12.4728333 C19.2015,12.9501667 18.8144167,13.3373333 18.337,13.3373333 Z M18.337,9.69008333 L10.24175,9.69008333 C9.76433333,9.69008333 9.37725,9.303 9.37725,8.82558333 C9.37725,8.34816667 9.76433333,7.96108333 10.24175,7.96108333 L18.337,7.96108333 C18.8144167,7.96108333 19.2015,8.34816667 19.2015,8.82558333 C19.2015,9.303 18.8144167,9.69008333 18.337,9.69008333 Z" id="Shape" fill-rule="nonzero"></path>
                </g>
            </g>
        </g>
    </g>
</svg>