<svg xmlns="http://www.w3.org/2000/svg" xmlns:xlink="http://www.w3.org/1999/xlink" width="370" height="175" viewBox="0 0 370 175">
    <defs>
        <linearGradient id="b" x1="50%" x2="50%" y1="0%" y2="100%">
            <stop offset="0%" stop-color="#40BCF9"/>
            <stop offset="100%" stop-color="#1E87F0"/>
        </linearGradient>
        <rect id="a" width="370" height="175" rx="4"/>
        <ellipse id="e" cx="419.564" cy="431.695" rx="8.977" ry="8.552"/>
        <filter id="d" width="645.9%" height="673%" x="-272.9%" y="-239.7%" filterUnits="objectBoundingBox">
            <feOffset dy="8" in="SourceAlpha" result="shadowOffsetOuter1"/>
            <feGaussianBlur in="shadowOffsetOuter1" result="shadowBlurOuter1" stdDeviation="15"/>
            <feColorMatrix in="shadowBlurOuter1" values="0 0 0 0 0.196078431 0 0 0 0 0.823529412 0 0 0 0 0.588235294 0 0 0 0.2 0"/>
        </filter>
        <linearGradient id="h" x1="50%" x2="50%" y1="0%" y2="100%">
            <stop offset="0%" stop-color="#40BCF9"/>
            <stop offset="100%" stop-color="#1E87F0" stop-opacity="0"/>
        </linearGradient>
        <circle id="g" cx="220.69" cy="347.811" r="125"/>
        <filter id="f" width="139.2%" height="139.2%" x="-19.6%" y="-16.4%" filterUnits="objectBoundingBox">
            <feOffset dy="8" in="SourceAlpha" result="shadowOffsetOuter1"/>
            <feGaussianBlur in="shadowOffsetOuter1" result="shadowBlurOuter1" stdDeviation="15"/>
            <feColorMatrix in="shadowBlurOuter1" values="0 0 0 0 0.117647059 0 0 0 0 0.529411765 0 0 0 0 0.941176471 0 0 0 0.2 0"/>
        </filter>
        <linearGradient id="k" x1="62.31%" x2="43.003%" y1="96.908%" y2="-10.654%">
            <stop offset="0%" stop-color="#40BCF9"/>
            <stop offset="100%" stop-color="#1E87F0" stop-opacity="0"/>
        </linearGradient>
        <circle id="j" cx="166.275" cy="166.148" r="125"/>
        <filter id="i" width="139.2%" height="139.2%" x="-19.6%" y="-16.4%" filterUnits="objectBoundingBox">
            <feOffset dy="8" in="SourceAlpha" result="shadowOffsetOuter1"/>
            <feGaussianBlur in="shadowOffsetOuter1" result="shadowBlurOuter1" stdDeviation="15"/>
            <feColorMatrix in="shadowBlurOuter1" values="0 0 0 0 0.117647059 0 0 0 0 0.529411765 0 0 0 0 0.941176471 0 0 0 0.2 0"/>
        </filter>
        <path id="l" d="M0 0h45v45H0z"/>
        <path id="n" d="M0 0h45v45H0z"/>
    </defs>
    <g fill="none" fill-rule="evenodd">
        <g>
            <mask id="c" fill="#fff">
                <use xlink:href="#a"/>
            </mask>
            <use fill="url(#b)" xlink:href="#a"/>
            <g mask="url(#c)">
                <g transform="rotate(-11 -746.637 997.239)">
                    <use fill="#000" filter="url(#d)" xlink:href="#e"/>
                    <use fill="#32D296" xlink:href="#e"/>
                </g>
                <g transform="rotate(-36 -115.824 479.527)">
                    <use fill="#000" filter="url(#f)" xlink:href="#g"/>
                    <use fill="url(#h)" xlink:href="#g"/>
                </g>
                <g opacity=".396" transform="rotate(-36 -165.958 356.526)">
                    <use fill="#000" filter="url(#i)" xlink:href="#j"/>
                    <use fill="url(#k)" xlink:href="#j"/>
                </g>
            </g>
        </g>
        <path stroke="#1F7BD2" d="M355 51H15M185 65v95"/>
        <g transform="translate(15 110)">
            <mask id="m" fill="#fff">
                <use xlink:href="#l"/>
            </mask>
            <g stroke="#2484C9" stroke-width="2" mask="url(#m)">
                <path stroke-linejoin="round" d="M5 37h35v-5.417c-2.559-1.002-4.41-2.994-5.556-5.975C32.727 21.136 34.064 7 22.5 7S12.062 21.176 10.584 25.608C9.598 28.562 7.737 30.554 5 31.583V37z"/>
                <path d="M17 37c1.044 3.333 2.914 5 5.61 5s4.493-1.667 5.39-5M21 7V4.179C21.106 3.393 21.613 3 22.519 3c.906 0 1.4.393 1.481 1.179V7"/>
                <path stroke-linecap="round" d="M15.444 21.143c.072 5.37-2.076 9.445-6.444 12.228"/>
            </g>
        </g>
        <g transform="translate(201 110)">
            <mask id="o" fill="#fff">
                <use xlink:href="#n"/>
            </mask>
            <g fill="#2484C9" mask="url(#o)">
                <path d="M40.28 25.774c0-4.861-1.744-9.385-5.23-13.57l.838-.848 2.143 2.168 1.691-1.71-5.977-6.043-1.69 1.71 2.143 2.167-.917.926a17.721 17.721 0 0 0-9.945-3.886v-1.27h3.585V3h-9.564v2.417h3.587v1.27a17.727 17.727 0 0 0-9.945 3.887l-.917-.926 2.143-2.167-1.69-1.71-5.978 6.043 1.69 1.71 2.144-2.168.838.848C5.743 15.775 4 20.299 4 25.774 4 33.987 11.406 43 22.103 43c10.698 0 18.176-9.933 18.176-17.226zM22.14 9.044c8.569 0 15.541 7.048 15.541 15.712S30.71 40.468 22.14 40.468c-8.569 0-15.541-7.049-15.541-15.712 0-8.664 6.972-15.713 15.541-15.713zm-3.587 15.712c0 2 1.609 3.626 3.586 3.626 1.978 0 3.587-1.627 3.587-3.626 0-2-1.61-3.626-3.587-3.626-.203 0-.4.028-.594.06l-6.866-8.099-1.817 1.574 6.566 7.744a3.618 3.618 0 0 0-.875 2.347zm4.782 0c0 .666-.537 1.208-1.196 1.208a1.204 1.204 0 0 1-1.195-1.208c0-.666.537-1.209 1.195-1.209.659 0 1.196.543 1.196 1.209zm-2.287 13.24c-6.762-.563-12.06-6.379-12.06-13.24 0-3.248 1.185-6.383 3.333-8.825l1.786 1.607a10.923 10.923 0 0 0-2.727 7.218c0 5.612 4.334 10.37 9.865 10.833l-.197 2.408z"/>
            </g>
        </g>
    </g>
</svg>
