<svg xmlns="http://www.w3.org/2000/svg" xmlns:xlink="http://www.w3.org/1999/xlink" width="370" height="175" viewBox="0 0 370 175">
    <defs>
        <rect id="a" width="370" height="175" rx="4"/>
        <linearGradient id="b" x1="100%" x2="0%" y1="50%" y2="50%">
            <stop offset="0%" stop-color="#517FA4"/>
            <stop offset="100%" stop-color="#243949"/>
        </linearGradient>
        <path id="d" d="M0 0h45v45H0z"/>
        <path id="f" d="M0 0h45v45H0z"/>
    </defs>
    <g fill="none" fill-rule="evenodd">
        <path stroke="#1F7BD2" d="M355 50.5H15" opacity=".45"/>
        <g>
            <mask id="c" fill="#fff">
                <use xlink:href="#a"/>
            </mask>
            <use fill="#142233" xlink:href="#a"/>
            <circle cx="79.001" cy="175.168" r="125" fill="url(#b)" fill-opacity=".35" mask="url(#c)" opacity=".3" transform="rotate(-36 79.001 175.168)"/>
            <circle cx="-9.077" cy="7.225" r="125" fill="url(#b)" fill-opacity=".35" mask="url(#c)" opacity=".3" transform="rotate(-36 -9.077 7.225)"/>
        </g>
        <path stroke="#1F7BD2" d="M355 50.5H15M185.5 65v95" opacity=".45"/>
        <g opacity=".6" transform="translate(15 110)">
            <mask id="e" fill="#fff">
                <use xlink:href="#d"/>
            </mask>
            <g stroke="#2484C9" stroke-width="2" mask="url(#e)">
                <path stroke-linejoin="round" d="M5 37h35v-5.417c-2.559-1.002-4.41-2.994-5.556-5.975C32.727 21.136 34.064 7 22.5 7S12.062 21.176 10.584 25.608C9.598 28.562 7.737 30.554 5 31.583V37z"/>
                <path d="M17 37c1.044 3.333 2.914 5 5.61 5s4.493-1.667 5.39-5M21 7V4.179C21.106 3.393 21.613 3 22.519 3c.906 0 1.4.393 1.481 1.179V7"/>
                <path stroke-linecap="round" d="M16.586 21c.463 4.318-1.24 8.153-5.11 11.504"/>
            </g>
        </g>
        <g opacity=".6" transform="translate(201 110)">
            <mask id="g" fill="#fff">
                <use xlink:href="#f"/>
            </mask>
            <g fill="#2484C9" mask="url(#g)">
                <path d="M40.28 25.774c0-4.861-1.744-9.385-5.23-13.57l.838-.848 2.143 2.168 1.691-1.71-5.977-6.043-1.69 1.71 2.143 2.167-.917.926a17.721 17.721 0 0 0-9.945-3.886v-1.27h3.585V3h-9.564v2.417h3.587v1.27a17.727 17.727 0 0 0-9.945 3.887l-.917-.926 2.143-2.167-1.69-1.71-5.978 6.043 1.69 1.71 2.144-2.168.838.848C5.743 15.775 4 20.299 4 25.774 4 33.987 11.406 43 22.103 43c10.698 0 18.176-9.933 18.176-17.226zM22.14 9.044c8.569 0 15.541 7.048 15.541 15.712S30.71 40.468 22.14 40.468c-8.569 0-15.541-7.049-15.541-15.712 0-8.664 6.972-15.713 15.541-15.713zm-3.587 15.712c0 2 1.609 3.626 3.586 3.626 1.978 0 3.587-1.627 3.587-3.626 0-2-1.61-3.626-3.587-3.626-.203 0-.4.028-.594.06l-6.866-8.099-1.817 1.574 6.566 7.744a3.618 3.618 0 0 0-.875 2.347zm4.782 0c0 .666-.537 1.208-1.196 1.208a1.204 1.204 0 0 1-1.195-1.208c0-.666.537-1.209 1.195-1.209.659 0 1.196.543 1.196 1.209zm-2.287 13.24c-6.762-.563-12.06-6.379-12.06-13.24 0-3.248 1.185-6.383 3.333-8.825l1.786 1.607a10.923 10.923 0 0 0-2.727 7.218c0 5.612 4.334 10.37 9.865 10.833l-.197 2.408z"/>
            </g>
        </g>
    </g>
</svg>
