<?xml version="1.0" encoding="utf-8"?>
<!-- Generator: Adobe Illustrator 22.0.1, SVG Export Plug-In . SVG Version: 6.00 Build 0)  -->
<svg version="1.1" id="Layer_1" xmlns="http://www.w3.org/2000/svg" xmlns:xlink="http://www.w3.org/1999/xlink" x="0px" y="0px"
	 viewBox="0 0 481.9 321.2" style="enable-background:new 0 0 481.9 321.2;" xml:space="preserve">
<style type="text/css">
	.st0{fill:#E7E9EC;}
	.st1{fill:#FFFFFF;stroke:#E7E9EC;stroke-width:4;}
	.st2{fill:#C3CFD0;}
	.st3{fill:#E1E7E9;}
	.st4{fill:#C6D1D4;}
</style>
<g>
	<path class="st0" d="M440.6,213H109.2c-20.3,0-37-16.7-37-37V41.6c0-20.3,16.7-37,37-37h331.3c20.4,0,37,16.7,37,37V176
		C477.6,196.3,460.9,213,440.6,213z"/>
	<path class="st1" d="M373.6,317.1H42.2c-20.3,0-37-16.6-37-37V145.8c0-20.3,16.6-37,37-37h331.3c20.4,0,37,16.7,37,37v134.3
		C410.6,300.5,393.9,317.1,373.6,317.1z"/>
	<path class="st2" d="M179.9,204.4h-120c-4,0-7.3-3.3-7.3-7.3v-0.6c0-4,3.3-7.3,7.3-7.3h120c4,0,7.3,3.3,7.3,7.3v0.6
		C187.2,201.1,183.9,204.4,179.9,204.4z"/>
	<path class="st3" d="M314.9,245.1h-255c-4,0-7.3-3.3-7.3-7.3v-0.6c0-4,3.3-7.3,7.3-7.3h255c4,0,7.3,3.3,7.3,7.3v0.6
		C322.2,241.8,318.9,245.1,314.9,245.1z"/>
	<path class="st4" d="M267.9,83.9h-120c-4,0-7.3-3.3-7.3-7.3V76c0-4,3.3-7.3,7.3-7.3h120c4,0,7.3,3.3,7.3,7.3v0.6
		C275.2,80.6,271.9,83.9,267.9,83.9z"/>
</g>
</svg>
