<?xml version="1.0" encoding="utf-8"?>
<!-- Generator: Adobe Illustrator 22.0.1, SVG Export Plug-In . SVG Version: 6.00 Build 0)  -->
<svg version="1.1" id="Layer_1" xmlns="http://www.w3.org/2000/svg" xmlns:xlink="http://www.w3.org/1999/xlink" x="0px" y="0px"
	 viewBox="0 0 261 322" style="enable-background:new 0 0 261 322;" xml:space="preserve">
<style type="text/css">
	.st0{fill:#C6C6C6;}
	.st1{fill:#D9D9D9;}
	.st2{fill:none;stroke:#A2A2A2;stroke-width:3;stroke-miterlimit:10;}
	.st3{fill:#A2A2A2;}
	.st4{fill:#EFEFEF;}
	.st5{fill:#737373;stroke:#737373;stroke-width:2;stroke-miterlimit:10;}
	.st6{fill:none;stroke:#4B4B4B;stroke-width:6;stroke-miterlimit:10;}
	.st7{fill:#4B4B4B;}
</style>
<path class="st0" d="M204.6,92c0-1,0-2.1,0-3.1c10.5,0,21,0,31.5,0.1c6.6,0,9.4,2.9,9.4,9.5c0,65,0,129.9,0,194.9
	c0,6.9-2.8,9.7-9.7,9.7c-43.1,0-86.3,0-129.4,0c-7.2,0-9.9-2.8-9.9-10c0-4,0-8,0-12c1,0,2,0,3,0c0,4,0,8,0,12c0.1,5.1,1.8,7,6.8,7
	c43.1,0,86.2,0,129.3,0c5,0,6.9-1.9,6.9-6.9c0-64.8,0-129.5,0-194.3c0-5-1.9-6.8-7-6.8C225.2,91.9,214.9,92,204.6,92z"/>
<path class="st1" d="M95.6,281.5c-22.1,0-44.3,0-66.4,0c-9.9,0-16.5-6.6-16.5-16.6c0-73.4,0.1-146.9-0.1-220.3
	c0-8.5,6.8-16.8,13.6-15.7c0,72.3,0,144.6,0,216.9c0,2.7,0.1,5.3,0.4,8c1.1,8.5,7.7,14.5,16.2,14.8c2.7,0.1,5.3,0.1,8,0.1
	c45.3,0,90.6,0.1,136,0.1c-0.7,2.4-1.5,4.7-3.1,6.7c-2.6,3.4-6,5.6-10.2,5.9c-3.6,0.3-7.2,0.1-10.8,0.1c-2.3,0-4.6,0-6.9,0
	c-11.7,0-23.4,0-35.1,0c-7.3,0-14.7,0-22-0.1C97.6,281.5,96.6,281.5,95.6,281.5z"/>
<path class="st2" d="M183.8,268.7H45.9c-10.9,0-19.8-8.9-19.8-19.8V31.9c0-10.9,8.9-19.8,19.8-19.8h137.9c10.9,0,19.8,8.9,19.8,19.8
	v216.9C203.6,259.8,194.7,268.7,183.8,268.7z"/>
<path class="st1" d="M173.2,46.5H58.7c-2.2,0-4-1.8-4-4v0c0-2.2,1.8-4,4-4h114.5c2.2,0,4,1.8,4,4v0
	C177.2,44.7,175.4,46.5,173.2,46.5z"/>
<path class="st1" d="M173.2,63H58.7c-2.2,0-4-1.8-4-4v0c0-2.2,1.8-4,4-4h114.5c2.2,0,4,1.8,4,4v0C177.2,61.2,175.4,63,173.2,63z"/>
<path class="st1" d="M173.2,80.5H58.7c-2.2,0-4-1.8-4-4v0c0-2.2,1.8-4,4-4h114.5c2.2,0,4,1.8,4,4v0
	C177.2,78.7,175.4,80.5,173.2,80.5z"/>
<path class="st1" d="M169.4,214.5H54.9c-2.2,0-4-1.8-4-4v0c0-2.2,1.8-4,4-4h114.5c2.2,0,4,1.8,4,4v0
	C173.4,212.7,171.6,214.5,169.4,214.5z"/>
<path class="st1" d="M169.4,198H54.9c-2.2,0-4-1.8-4-4v0c0-2.2,1.8-4,4-4h114.5c2.2,0,4,1.8,4,4v0C173.4,196.2,171.6,198,169.4,198z
	"/>
<path class="st1" d="M169.4,246H54.9c-2.2,0-4-1.8-4-4v0c0-2.2,1.8-4,4-4h114.5c2.2,0,4,1.8,4,4v0C173.4,244.2,171.6,246,169.4,246z
	"/>
<path class="st1" d="M115.8,231H55.6c-2.2,0-4-1.8-4-4l0,0c0-2.2,1.8-4,4-4h60.2c2.2,0,4,1.8,4,4l0,0C119.8,229.2,118,231,115.8,231
	z"/>
<path class="st3" d="M169.4,231h-32c-2.2,0-4-1.8-4-4l0,0c0-2.2,1.8-4,4-4h32c2.2,0,4,1.8,4,4l0,0C173.4,229.2,171.6,231,169.4,231z
	"/>
<g>
	<path class="st4" d="M65.2,148.7c0-5.2,3.7-9.3,8.6-9.3c4.7,0,8.5,3.9,8.6,8.8c0.1,5.3-3.8,9.4-8.7,9.3
		C68.8,157.4,65.2,153.6,65.2,148.7z"/>
	<path class="st4" d="M159.1,148.5c0,4.9-4,9.2-8.2,9.1c-4.1-0.1-8.9-5.4-8.9-9.7c0-4.5,4-8.4,8.5-8.5
		C155.2,139.2,159.1,143.3,159.1,148.5z"/>
	<path class="st5" d="M116,137.8c4.7,0.1,11.3,2.6,17.2,7.2c0.9,0.7,2.2,1.6,1.5,2.7c-0.9,1.5-2.3,0.7-3.4-0.1
		c-12.7-9.1-25.4-9.1-38,0.3c-0.9,0.7-2.2,1.3-3,0.1c-0.8-1.3,0.3-2.1,1.1-2.9C95.7,140.9,105.6,137.5,116,137.8z"/>
	<path class="st5" d="M94.6,121.8c-2.1-0.2-4.1-0.8-5.8-2.1c-1.5-1.3-4.4-2.6-2.9-4.7c1.8-2.3,3,0.9,4.4,1.8
		c3.8,2.6,7.1,1.8,10.2-1.1c0.9-0.8,1.9-2.4,3.2-0.9c1.1,1.4-0.1,2.4-1,3.3C100.6,120.4,97.8,121.7,94.6,121.8z"/>
	<path class="st5" d="M128.1,121.8c-3.6-0.2-6.4-1.8-8.7-4.7c-0.6-0.8-0.9-1.7-0.1-2.5c0.9-0.9,1.7-0.2,2.4,0.5
		c4.2,4.5,8.4,4.5,12.6,0c0.7-0.7,1.6-1.4,2.4-0.5c1.1,1,0.5,2.1-0.3,3C134.3,120.1,131.5,121.4,128.1,121.8z"/>
	<circle class="st6" cx="121" cy="131.6" r="64"/>
	<path class="st7" d="M173.6,185.6L173.6,185.6c-0.7,0.6-1.8,0.5-2.4-0.3l-5.4-6.8c-0.6-0.7-0.5-1.8,0.3-2.4l0,0
		c0.7-0.6,1.8-0.5,2.4,0.3l5.4,6.8C174.4,184,174.3,185.1,173.6,185.6z"/>
	<path class="st6" d="M209.6,233.2L172.4,196c-3-3-3-7.8,0-10.7l0.5-0.5c3-3,7.8-3,10.7,0l37.2,37.2c3,3,3,7.8,0,10.7l-0.5,0.5
		C217.4,236.1,212.6,236.1,209.6,233.2z"/>
</g>
</svg>
